<svg xmlns="http://www.w3.org/2000/svg"  viewBox="0 0 100 100" width="100px" height="100px"><path d="M-0.006,75.002v-4h27.999	c6.092,0,11.58-2.437,15.588-6.416L63.87,44.297l-1.415-1.415L42.169,63.169c-0.915,0.908-1.913,1.727-2.983,2.445l-5.244-5.244	c-1.745,2.504-2.981,5.381-3.567,8.495c-0.781,0.091-1.576,0.137-2.383,0.137h-1.697c0.853-5.581,3.471-10.573,7.28-14.411	l27.002-27.003c0.78-0.781,2.048-0.781,2.828,0l10,10c0.781,0.78,0.781,2.048,0,2.828L46.404,67.419	c-4.733,4.699-11.224,7.583-18.41,7.583H-0.006z M45.367,71.002h54.626v4H38.44C40.947,74.001,43.275,72.647,45.367,71.002z M39.492,63.089l21.585-21.585l-1.585-1.585L37.906,61.505L39.492,63.089z M36.491,60.09l21.586-21.587l-1.379-1.379L36.41,57.414	c-0.432,0.435-0.844,0.887-1.239,1.355L36.491,60.09z M65.285,42.882l3.879-3.88l-7.171-7.171l-3.88,3.879L65.285,42.882z"/></svg>